<svg width="1280" height="640" viewBox="0 0 1280 640" fill="none" xmlns="http://www.w3.org/2000/svg">
  <defs>
    <linearGradient id="bg" x1="101" y1="76" x2="1115" y2="604" gradientUnits="userSpaceOnUse">
      <stop stop-color="#06131C"/>
      <stop offset="0.55" stop-color="#0B1D28"/>
      <stop offset="1" stop-color="#041015"/>
    </linearGradient>
    <linearGradient id="accent" x1="772" y1="170" x2="1095" y2="463" gradientUnits="userSpaceOnUse">
      <stop stop-color="#71FFF1"/>
      <stop offset="1" stop-color="#1A7EFF"/>
    </linearGradient>
    <linearGradient id="line" x1="155" y1="194" x2="494" y2="194" gradientUnits="userSpaceOnUse">
      <stop stop-color="#71FFF1" stop-opacity="0"/>
      <stop offset="0.5" stop-color="#71FFF1" stop-opacity="0.9"/>
      <stop offset="1" stop-color="#71FFF1" stop-opacity="0"/>
    </linearGradient>
    <filter id="blur" x="683" y="81" width="471" height="414" filterUnits="userSpaceOnUse" color-interpolation-filters="sRGB">
      <feGaussianBlur stdDeviation="24"/>
    </filter>
  </defs>
  <rect width="1280" height="640" rx="32" fill="url(#bg)"/>
  <g opacity="0.22">
    <path d="M98 124H564" stroke="#1A4256"/>
    <path d="M98 184H564" stroke="#1A4256"/>
    <path d="M98 244H564" stroke="#1A4256"/>
    <path d="M98 304H564" stroke="#1A4256"/>
    <path d="M98 364H564" stroke="#1A4256"/>
    <path d="M98 424H564" stroke="#1A4256"/>
    <path d="M98 484H564" stroke="#1A4256"/>
  </g>
  <circle cx="1088" cy="116" r="170" fill="#0D2431" opacity="0.5"/>
  <circle cx="990" cy="480" r="188" fill="#082435" opacity="0.72"/>
  <g opacity="0.35" filter="url(#blur)">
    <circle cx="918" cy="288" r="114" fill="#48D7E7"/>
    <circle cx="964" cy="304" r="92" fill="#275DFF"/>
  </g>
  <text x="96" y="116" fill="#8FB6CA" font-family="SF Pro Display, PingFang SC, sans-serif" font-size="18" letter-spacing="0.24em">LOCAL VOICE INPUT</text>
  <text x="96" y="212" fill="white" font-family="SF Pro Display, PingFang SC, sans-serif" font-size="70" font-weight="700">
    <tspan x="96" dy="0">Talk once.</tspan>
    <tspan x="96" dy="84">Type anywhere.</tspan>
  </text>
  <text x="98" y="362" fill="#A6C2CF" font-family="SF Pro Text, PingFang SC, sans-serif" font-size="24">
    <tspan x="98" dy="0">A lightweight macOS menu bar dictation tool.</tspan>
    <tspan x="98" dy="38">Local Whisper. Quick hotkey. Auto paste.</tspan>
  </text>
  <text x="98" y="468" fill="#D8F4F5" font-family="PingFang SC, SF Pro Text, sans-serif" font-size="26" font-weight="600">
    像输入法一样唤起，像小工具一样安静常驻。
  </text>
  <rect x="96" y="514" width="198" height="54" rx="27" fill="#DDFBFF"/>
  <text x="127" y="548" fill="#03202B" font-family="SF Pro Display, PingFang SC, sans-serif" font-size="22" font-weight="700">Download macOS</text>
  <rect x="312" y="514" width="172" height="54" rx="27" fill="#0D2330" stroke="#245167"/>
  <text x="361" y="548" fill="#E3F8FF" font-family="SF Pro Display, PingFang SC, sans-serif" font-size="22" font-weight="600">View Source</text>
  <g>
    <rect x="738" y="122" width="430" height="388" rx="28" fill="#08161F" fill-opacity="0.74" stroke="#1D5367"/>
    <rect x="766" y="151" width="374" height="36" rx="18" fill="#0F2532"/>
    <circle cx="793" cy="169" r="9" fill="#71FFF1"/>
    <text x="815" y="176" fill="#DFF9FF" font-family="SF Pro Display, PingFang SC, sans-serif" font-size="18" font-weight="600">本地语音输入</text>
    <text x="1046" y="176" fill="#82A6B7" font-family="SF Pro Text, PingFang SC, sans-serif" font-size="14">右 Command</text>
    <rect x="770" y="216" width="164" height="114" rx="20" fill="#0D2230"/>
    <text x="790" y="247" fill="#8FB6CA" font-family="SF Pro Text, PingFang SC, sans-serif" font-size="15">Input</text>
    <text x="790" y="286" fill="white" font-family="SF Pro Display, PingFang SC, sans-serif" font-size="28" font-weight="700">Chinese dictation</text>
    <text x="790" y="314" fill="#8FB6CA" font-family="SF Pro Text, PingFang SC, sans-serif" font-size="16">Mic / iPhone / BlackHole</text>
    <rect x="952" y="216" width="184" height="114" rx="20" fill="#102739"/>
    <text x="972" y="247" fill="#8FB6CA" font-family="SF Pro Text, PingFang SC, sans-serif" font-size="15">Output</text>
    <text x="972" y="286" fill="white" font-family="SF Pro Display, PingFang SC, sans-serif" font-size="29" font-weight="700">English</text>
    <text x="972" y="314" fill="#8FB6CA" font-family="SF Pro Text, PingFang SC, sans-serif" font-size="16">Translate / Natural polish</text>
    <rect x="770" y="352" width="366" height="128" rx="24" fill="#071219" stroke="#14374A"/>
    <path d="M804 421C823 403 842 389 861 389C880 389 899 421 918 421C937 421 956 371 975 371C994 371 1013 443 1032 443C1051 443 1070 395 1089 395" stroke="url(#accent)" stroke-width="8" stroke-linecap="round"/>
    <path d="M789 447H1112" stroke="url(#line)" stroke-width="2"/>
    <text x="790" y="387" fill="#DDFBFF" font-family="SF Pro Display, PingFang SC, sans-serif" font-size="18" font-weight="600">Hold to speak. Release to paste.</text>
    <text x="790" y="468" fill="#8FB6CA" font-family="SF Pro Text, PingFang SC, sans-serif" font-size="15">Local Whisper · Menu bar utility · Custom dictionary</text>
  </g>
</svg>
